<?xml version="1.0" standalone="no"?>
<!DOCTYPE svg PUBLIC "-//W3C//DTD SVG 20010904//EN"
 "http://www.w3.org/TR/2001/REC-SVG-20010904/DTD/svg10.dtd">
<svg version="1.0" xmlns="http://www.w3.org/2000/svg"
 width="70.000000pt" height="70.000000pt" viewBox="0 0 500.000000 500.000000"
 preserveAspectRatio="xMidYMid meet">

<g transform="translate(0.000000,500.000000) scale(0.100000,-0.100000)"
fill="#000000" stroke="none">
<path d="M1405 3809 c-31 -17 -1334 -1321 -1351 -1351 -17 -32 -18 -91 -3
-121 16 -31 1318 -1335 1351 -1353 15 -8 46 -14 69 -14 33 0 47 6 74 33 19 19
37 46 41 60 17 70 25 61 -603 693 -329 330 -606 610 -616 621 -17 20 -6 32
584 624 331 332 610 618 620 634 10 17 19 44 19 61 0 37 -36 94 -70 111 -31
16 -88 16 -115 2z"/>
<path d="M3466 3799 c-51 -40 -70 -108 -43 -157 8 -13 286 -296 620 -630 334
-334 607 -612 607 -617 0 -6 -273 -282 -606 -615 -333 -333 -612 -617 -620
-632 -27 -52 -11 -116 42 -157 31 -25 92 -28 132 -7 15 8 325 313 689 678 531
531 664 669 669 695 17 88 45 57 -669 771 -364 365 -674 670 -689 678 -40 21
-101 18 -132 -7z"/>
<path d="M2422 3569 c-55 -10 -141 -50 -187 -85 -28 -21 -58 -57 -111 -133 -2
-1 -31 4 -66 13 -85 21 -136 20 -202 -4 -110 -42 -180 -115 -211 -225 -46
-158 33 -329 185 -399 l49 -23 4 -519 c5 -575 3 -561 73 -704 50 -101 159
-210 264 -263 337 -169 740 0 863 363 21 63 22 80 25 592 l3 528 56 27 c257
121 261 480 6 609 -50 25 -69 29 -138 28 -44 0 -98 -7 -121 -16 l-41 -15 -27
44 c-58 91 -165 161 -281 182 -66 12 -82 12 -143 0z m176 -53 c101 -27 186
-96 234 -191 11 -22 21 -41 22 -42 1 -1 26 9 55 23 46 23 64 25 130 22 90 -4
135 -24 196 -85 116 -116 112 -297 -9 -411 -123 -116 -316 -106 -421 23 l-37
45 -36 -31 c-72 -63 -210 -100 -302 -80 -66 14 -150 54 -179 85 l-22 23 -57
-56 c-42 -42 -71 -61 -111 -74 -146 -47 -291 14 -357 149 -71 146 -4 325 149
395 63 28 167 26 236 -6 30 -14 54 -24 55 -23 72 186 263 285 454 234z m-199
-762 c110 -26 222 -9 314 47 l49 30 38 -35 c22 -19 56 -44 78 -55 38 -19 148
-44 174 -39 10 2 14 -17 16 -79 l3 -83 -571 0 -570 0 0 83 0 82 58 3 c65 3
156 42 212 90 l35 30 53 -31 c30 -16 80 -36 111 -43z m669 -326 l3 -68 -571 0
-570 0 0 70 0 70 568 -2 567 -3 3 -67z m-994 -281 c8 -35 75 -97 105 -98 79
-3 110 13 148 79 l26 44 18 -35 c61 -117 191 -120 250 -4 l21 41 15 -30 c67
-130 206 -129 265 2 10 21 12 20 42 -24 18 -28 47 -55 70 -66 l39 -19 -6 -181
c-3 -130 -10 -196 -22 -236 -88 -284 -358 -455 -640 -406 -186 32 -331 139
-416 308 -47 93 -59 163 -59 350 l0 167 30 16 c38 19 79 64 86 93 8 29 20 28
28 -1z"/>
<path d="M2234 1891 c-33 -20 -54 -65 -54 -115 0 -40 14 -61 34 -53 12 5 16
20 16 57 0 83 54 117 105 65 20 -19 25 -34 25 -75 0 -43 3 -50 20 -50 18 0 20
7 20 61 0 56 -3 64 -34 95 -40 40 -83 45 -132 15z"/>
<path d="M2661 1894 c-46 -33 -72 -157 -35 -171 22 -8 34 14 34 65 0 75 57
106 105 57 20 -19 25 -34 25 -75 0 -43 3 -50 20 -50 18 0 20 7 20 61 0 56 -3
64 -34 95 -27 27 -42 34 -73 34 -21 0 -49 -7 -62 -16z"/>
<path d="M2260 1518 c0 -19 82 -90 128 -110 130 -58 303 -13 357 93 l16 29
-251 0 c-182 0 -250 -3 -250 -12z"/>
</g>
</svg>
