<?xml version="1.0" standalone="no"?>
<!DOCTYPE svg PUBLIC "-//W3C//DTD SVG 20010904//EN"
 "http://www.w3.org/TR/2001/REC-SVG-20010904/DTD/svg10.dtd">
<svg version="1.0" xmlns="http://www.w3.org/2000/svg"
 width="768.000000pt" height="245.000000pt" viewBox="0 0 768.000000 245.000000"
 preserveAspectRatio="xMidYMid meet">

<g transform="translate(0.000000,245.000000) scale(0.100000,-0.100000)"
fill="rgb(236, 34, 22)" stroke="none">
<path d="M934 2435 c-163 -35 -303 -164 -369 -338 -13 -34 -26 -85 -30 -112
-3 -28 -8 -60 -11 -72 l-4 -23 -244 0 c-286 0 -278 2 -271 -88 3 -31 19 -374
35 -762 23 -523 34 -718 45 -757 18 -61 74 -117 134 -133 27 -7 287 -10 823
-8 707 3 786 5 813 20 43 23 85 68 102 106 10 24 23 220 48 730 18 383 36 734
39 779 9 119 24 113 -269 113 l-244 0 -6 48 c-33 254 -197 452 -414 498 -79
16 -98 16 -177 -1z m221 -144 c54 -24 138 -101 171 -156 30 -53 59 -136 67
-197 l7 -48 -370 0 -370 0 0 38 c0 45 24 131 52 186 44 87 151 173 242 197 47
12 151 2 201 -20z m-22 -696 c66 -14 157 -50 205 -81 21 -14 21 -17 8 -42 -35
-66 -34 -66 -109 -28 -210 105 -430 50 -444 -112 -9 -101 46 -151 247 -228
163 -62 240 -105 298 -168 123 -134 73 -364 -98 -450 -147 -75 -375 -54 -535
49 -79 50 -82 58 -51 105 14 22 31 40 37 40 6 0 25 -11 42 -24 54 -41 158 -85
233 -97 152 -26 298 46 320 159 10 51 -4 100 -43 143 -47 52 -96 80 -213 122
-212 77 -288 127 -334 219 -66 131 -5 291 136 364 89 45 182 54 301 29z" />
<path d="M3443 1613 c-10 -4 -13 -135 -13 -609 l0 -605 63 3 62 3 5 236 5 236
28 41 c44 67 97 96 181 100 66 3 75 1 126 -30 42 -25 61 -45 82 -87 l28 -53 0
-224 0 -224 66 0 65 0 -3 243 c-3 238 -3 243 -30 299 -34 73 -103 142 -176
176 -49 23 -70 27 -147 27 -91 0 -97 -2 -217 -63 -5 -2 -8 114 -8 257 0 247
-1 261 -19 271 -20 10 -76 12 -98 3z" fill=" rgb(236, 34, 22)"/>
<path d="M2739 1595 c-150 -55 -232 -157 -231 -289 0 -102 44 -181 136 -242
29 -19 115 -57 192 -85 76 -27 157 -58 179 -68 149 -68 191 -217 89 -313 -53
-49 -120 -72 -214 -73 -102 0 -188 26 -280 86 -33 21 -64 39 -69 39 -11 0 -61
-76 -61 -94 0 -17 89 -78 157 -107 121 -52 300 -65 411 -31 159 50 251 178
240 336 -10 154 -120 248 -398 342 -127 43 -193 81 -227 133 -59 87 1 215 116
250 91 27 239 4 337 -53 23 -13 46 -21 51 -17 5 3 21 24 36 45 24 36 25 42 11
57 -20 22 -115 64 -189 84 -72 18 -236 19 -286 0z" fill=" rgb(236, 34, 22)"/>
<path d="M4529 1141 c-111 -36 -209 -129 -245 -233 -26 -74 -24 -186 5 -260
31 -80 106 -159 189 -200 62 -31 74 -33 167 -33 93 0 105 2 167 33 161 79 246
255 204 422 -53 212 -280 337 -487 271z m217 -126 c115 -47 179 -186 142 -309
-19 -63 -100 -140 -167 -160 -68 -20 -84 -20 -152 0 -67 20 -148 97 -167 160
-34 115 10 230 113 294 62 38 157 45 231 15z" fill=" rgb(236, 34, 22)"/>
<path d="M5172 583 l3 -578 54 -3 c37 -2 57 1 62 10 5 7 9 118 9 247 0 224 1
233 18 218 10 -9 44 -29 77 -44 53 -25 72 -28 155 -28 86 0 101 3 162 32 81
38 146 102 185 181 25 51 28 68 28 157 0 93 -2 105 -33 167 -74 151 -238 236
-400 208 -39 -6 -93 -25 -129 -45 l-63 -35 0 29 c0 55 -7 61 -71 61 l-59 0 2
-577z m483 423 c136 -63 189 -220 118 -347 -127 -229 -473 -143 -473 117 0 75
15 116 61 169 72 82 195 108 294 61z" fill=" rgb(236, 34, 22)"/>
<path d="M6336 1144 c-273 -87 -351 -441 -139 -634 69 -63 143 -92 253 -98
100 -5 188 14 264 57 78 44 81 59 27 130 l-19 24 -48 -32 c-128 -84 -291 -80
-389 10 -43 39 -75 92 -75 123 0 14 30 16 284 16 328 0 312 -5 303 91 -11 125
-97 242 -215 297 -70 32 -175 39 -246 16z m219 -143 c50 -28 121 -113 109
-132 -6 -10 -437 -13 -447 -3 -11 11 30 80 67 111 31 28 63 43 121 56 37 9
100 -5 150 -32z" fill=" rgb(236, 34, 22)"/>
<path d="M7219 1146 c-103 -27 -189 -102 -237 -206 -22 -47 -26 -69 -26 -155
-1 -90 2 -106 27 -157 64 -130 185 -208 335 -216 49 -3 108 1 141 8 65 14 158
59 185 88 18 21 18 22 -10 67 -16 25 -33 45 -37 45 -5 0 -23 -11 -40 -24 -59
-45 -115 -61 -207 -61 -72 1 -93 5 -136 27 -28 15 -64 42 -79 60 -27 32 -55
87 -55 108 0 7 97 10 290 10 336 0 318 -6 301 99 -13 82 -41 140 -93 197 -98
106 -226 146 -359 110z m141 -117 c59 -13 113 -50 150 -101 51 -70 57 -68
-195 -68 -149 0 -225 4 -225 10 0 26 43 91 76 116 19 15 56 33 82 40 58 16 57
16 112 3z" fill=" rgb(236, 34, 22)"/>
</g>
</svg>
