<?xml version="1.0" standalone="no"?>
<!DOCTYPE svg PUBLIC "-//W3C//DTD SVG 20010904//EN"
 "http://www.w3.org/TR/2001/REC-SVG-20010904/DTD/svg10.dtd">
<svg version="1.0" xmlns="http://www.w3.org/2000/svg"
 width="1083.000000pt" height="1536.000000pt" viewBox="0 0 1083.000000 1536.000000"
 preserveAspectRatio="xMidYMid meet">

<g transform="translate(0.000000,1536.000000) scale(0.100000,-0.100000)"
fill="#ffffff" stroke="none">
<path d="M5290 15350 c-419 -34 -810 -185 -1165 -449 -132 -99 -400 -368 -500
-504 -343 -462 -537 -983 -588 -1577 l-12 -145 -1181 -5 -1181 -5 -40 -28
c-42 -29 -77 -82 -87 -132 -4 -17 32 -874 79 -1905 46 -1031 121 -2671 165
-3645 44 -973 84 -1806 91 -1850 13 -97 57 -237 102 -325 110 -219 292 -390
500 -470 166 -65 -137 -60 3982 -58 l3740 3 80 22 c366 103 649 413 721 792 9
46 40 602 84 1490 70 1421 201 4080 261 5298 l32 652 -24 48 c-15 28 -42 60
-68 78 l-43 30 -1181 5 -1182 5 -2 45 c-62 1156 -733 2153 -1686 2504 -272
101 -618 150 -897 126z m395 -655 c812 -131 1436 -904 1525 -1889 6 -66 7
-123 2 -128 -4 -4 -800 -7 -1768 -6 l-1759 3 3 70 c29 615 314 1221 747 1583
247 207 507 325 825 375 67 11 343 6 425 -8z m5 -3410 c252 -29 507 -92 737
-180 197 -77 506 -240 566 -300 46 -46 38 -73 -69 -245 -97 -158 -123 -190
-153 -190 -9 0 -64 29 -121 65 -345 215 -717 334 -1137 364 -377 27 -712 -80
-949 -301 -252 -236 -332 -588 -198 -876 139 -302 452 -513 1074 -722 703
-237 1163 -481 1451 -769 123 -124 186 -210 254 -346 98 -198 133 -374 122
-619 -26 -577 -334 -1039 -852 -1281 -295 -138 -667 -205 -1030 -185 -672 38
-1219 240 -1721 638 -89 69 -104 87 -104 118 0 17 224 352 248 372 35 27 68
13 194 -81 160 -120 280 -194 448 -278 367 -183 770 -274 1104 -248 596 45
1014 309 1146 724 34 107 39 303 11 415 -58 236 -226 450 -485 622 -184 121
-351 199 -633 294 -222 74 -361 126 -638 238 -314 128 -400 170 -540 264 -364
245 -569 526 -647 887 -17 82 -17 380 1 470 58 292 223 570 455 765 247 207
550 338 887 384 142 19 415 19 579 1z"/>
</g>
</svg>
